<svg xmlns="http://www.w3.org/2000/svg" xmlns:xlink="http://www.w3.org/1999/xlink" width="221" zoomAndPan="magnify" viewBox="0 0 165.75 192.749995" height="257" preserveAspectRatio="xMidYMid meet" version="1.0"><defs><g/><clipPath id="7e4a3ecc9d"><path d="M 38 33 L 165.5 33 L 165.5 159 L 38 159 Z M 38 33 " clip-rule="nonzero"/></clipPath><clipPath id="43c8e311bb"><path d="M 0.820312 0.0898438 L 39 0.0898438 L 39 125.902344 L 0.820312 125.902344 Z M 0.820312 0.0898438 " clip-rule="nonzero"/></clipPath><clipPath id="6085e48173"><rect x="0" width="39" y="0" height="126"/></clipPath><clipPath id="db24ad196e"><path d="M 96.824219 39.640625 L 127.414062 39.640625 L 127.414062 66.476562 L 96.824219 66.476562 Z M 96.824219 39.640625 " clip-rule="nonzero"/></clipPath><clipPath id="259fcee6dc"><path d="M 116.757812 39.746094 L 107.4375 39.746094 C 101.574219 39.746094 96.824219 44.386719 96.824219 50.113281 C 96.824219 54.257812 99.3125 57.835938 102.914062 59.496094 L 102.914062 66.476562 L 110.121094 60.480469 L 116.757812 60.480469 C 122.617188 60.480469 127.371094 55.839844 127.371094 50.113281 C 127.371094 44.386719 122.617188 39.746094 116.757812 39.746094 Z M 116.757812 39.746094 " clip-rule="nonzero"/></clipPath><clipPath id="b30d9d69ea"><path d="M 0.824219 0.640625 L 31.414062 0.640625 L 31.414062 27.476562 L 0.824219 27.476562 Z M 0.824219 0.640625 " clip-rule="nonzero"/></clipPath><clipPath id="d52fe05166"><path d="M 20.757812 0.746094 L 11.4375 0.746094 C 5.574219 0.746094 0.824219 5.386719 0.824219 11.113281 C 0.824219 15.257812 3.3125 18.835938 6.914062 20.496094 L 6.914062 27.476562 L 14.121094 21.480469 L 20.757812 21.480469 C 26.617188 21.480469 31.371094 16.839844 31.371094 11.113281 C 31.371094 5.386719 26.617188 0.746094 20.757812 0.746094 Z M 20.757812 0.746094 " clip-rule="nonzero"/></clipPath><clipPath id="30a289c76c"><rect x="0" width="32" y="0" height="28"/></clipPath><clipPath id="53e16bbf3f"><path d="M 15 5 L 21.796875 5 L 21.796875 13.6875 L 15 13.6875 Z M 15 5 " clip-rule="nonzero"/></clipPath><clipPath id="93b2e3f171"><rect x="0" width="22" y="0" height="14"/></clipPath><clipPath id="3d9a54a046"><path d="M 36 3 L 40.972656 3 L 40.972656 10 L 36 10 Z M 36 3 " clip-rule="nonzero"/></clipPath><clipPath id="2f85a8fd03"><rect x="0" width="41" y="0" height="13"/></clipPath><clipPath id="af95bec626"><rect x="0" width="128" y="0" height="126"/></clipPath></defs><g clip-path="url(#7e4a3ecc9d)"><g transform="matrix(1, 0, 0, 1, 38, 33)"><g clip-path="url(#af95bec626)"><g clip-path="url(#43c8e311bb)"><g transform="matrix(1, 0, 0, 1, -0.000000000000007105, -0.000000000000007105)"><g clip-path="url(#6085e48173)"><g fill="#ffffff" fill-opacity="1"><g transform="translate(1.016494, 100.730203)"><g><path d="M 30.640625 1.203125 C 25.554688 1.203125 21.503906 -0.367188 18.484375 -3.515625 C 15.472656 -6.660156 13.96875 -11.050781 13.96875 -16.6875 L 13.96875 -43.609375 L 3.015625 -43.609375 L 3.015625 -50.234375 L 8.640625 -50.234375 C 12.929688 -50.234375 15.078125 -52.378906 15.078125 -56.671875 L 15.078125 -63.609375 L 21 -63.609375 L 21 -50.234375 L 36.578125 -50.234375 L 36.578125 -43.609375 L 21 -43.609375 L 21 -16.6875 C 21 -12.925781 21.851562 -10.109375 23.5625 -8.234375 C 25.269531 -6.359375 27.734375 -5.421875 30.953125 -5.421875 C 33.023438 -5.421875 34.898438 -5.789062 36.578125 -6.53125 L 36.578125 -0.09375 C 34.898438 0.769531 32.921875 1.203125 30.640625 1.203125 Z M 30.640625 1.203125 "/></g></g></g></g></g></g><g fill="#ffffff" fill-opacity="1"><g transform="translate(37.667874, 70.111906)"><g><path d="M 13.65625 0.59375 C 11.40625 0.59375 9.363281 0.109375 7.53125 -0.859375 C 5.695312 -1.828125 4.257812 -3.132812 3.21875 -4.78125 C 2.1875 -6.425781 1.671875 -8.21875 1.671875 -10.15625 C 1.671875 -12.09375 2.1875 -13.882812 3.21875 -15.53125 C 4.257812 -17.175781 5.695312 -18.484375 7.53125 -19.453125 C 9.363281 -20.421875 11.40625 -20.90625 13.65625 -20.90625 C 15.914062 -20.90625 17.960938 -20.421875 19.796875 -19.453125 C 21.628906 -18.484375 23.0625 -17.175781 24.09375 -15.53125 C 25.132812 -13.882812 25.65625 -12.09375 25.65625 -10.15625 C 25.65625 -8.21875 25.132812 -6.425781 24.09375 -4.78125 C 23.0625 -3.132812 21.628906 -1.828125 19.796875 -0.859375 C 17.960938 0.109375 15.914062 0.59375 13.65625 0.59375 Z M 13.65625 -4.625 C 15.519531 -4.625 17.019531 -5.144531 18.15625 -6.1875 C 19.300781 -7.238281 19.875 -8.5625 19.875 -10.15625 C 19.875 -11.75 19.300781 -13.066406 18.15625 -14.109375 C 17.019531 -15.160156 15.519531 -15.6875 13.65625 -15.6875 C 11.800781 -15.6875 10.300781 -15.160156 9.15625 -14.109375 C 8.019531 -13.066406 7.453125 -11.75 7.453125 -10.15625 C 7.453125 -8.5625 8.019531 -7.238281 9.15625 -6.1875 C 10.300781 -5.144531 11.800781 -4.625 13.65625 -4.625 Z M 13.65625 -4.625 "/></g></g></g><g fill="#ffffff" fill-opacity="1"><g transform="translate(62.716101, 70.111906)"><g><path d="M 2.875 7.171875 L 2.875 -20.3125 L 7.25 -20.3125 L 8.125 -18.328125 L 8.328125 -18.328125 C 10.179688 -20.046875 12.539062 -20.90625 15.40625 -20.90625 C 17.40625 -20.90625 19.226562 -20.441406 20.875 -19.515625 C 22.519531 -18.585938 23.816406 -17.304688 24.765625 -15.671875 C 25.722656 -14.035156 26.203125 -12.195312 26.203125 -10.15625 C 26.203125 -8.113281 25.722656 -6.273438 24.765625 -4.640625 C 23.816406 -3.003906 22.519531 -1.722656 20.875 -0.796875 C 19.226562 0.128906 17.40625 0.59375 15.40625 0.59375 C 13.84375 0.59375 12.515625 0.351562 11.421875 -0.125 C 10.335938 -0.601562 9.476562 -1.144531 8.84375 -1.75 L 8.640625 -1.75 L 8.640625 7.171875 Z M 14.53125 -4.625 C 16.207031 -4.625 17.609375 -5.144531 18.734375 -6.1875 C 19.867188 -7.238281 20.4375 -8.5625 20.4375 -10.15625 C 20.4375 -11.75 19.867188 -13.066406 18.734375 -14.109375 C 17.609375 -15.160156 16.207031 -15.6875 14.53125 -15.6875 C 12.863281 -15.6875 11.460938 -15.160156 10.328125 -14.109375 C 9.203125 -13.066406 8.640625 -11.75 8.640625 -10.15625 C 8.640625 -8.5625 9.203125 -7.238281 10.328125 -6.1875 C 11.460938 -5.144531 12.863281 -4.625 14.53125 -4.625 Z M 14.53125 -4.625 "/></g></g></g><g fill="#ffffff" fill-opacity="1"><g transform="translate(37.667874, 101.141777)"><g><path d="M 25.25 -10.3125 C 25.25 -9.28125 25.15625 -8.535156 24.96875 -8.078125 L 7.609375 -8.078125 C 8.035156 -6.941406 8.804688 -6.046875 9.921875 -5.390625 C 11.035156 -4.742188 12.335938 -4.421875 13.828125 -4.421875 C 15.867188 -4.421875 17.378906 -4.882812 18.359375 -5.8125 L 24.5 -5.8125 C 24.019531 -4.726562 23.28125 -3.691406 22.28125 -2.703125 C 21.289062 -1.722656 20.0625 -0.925781 18.59375 -0.3125 C 17.132812 0.289062 15.515625 0.59375 13.734375 0.59375 C 11.453125 0.59375 9.390625 0.109375 7.546875 -0.859375 C 5.703125 -1.828125 4.257812 -3.132812 3.21875 -4.78125 C 2.1875 -6.425781 1.671875 -8.21875 1.671875 -10.15625 C 1.671875 -12.09375 2.1875 -13.882812 3.21875 -15.53125 C 4.257812 -17.175781 5.695312 -18.484375 7.53125 -19.453125 C 9.363281 -20.421875 11.40625 -20.90625 13.65625 -20.90625 C 15.707031 -20.90625 17.617188 -20.441406 19.390625 -19.515625 C 21.171875 -18.585938 22.59375 -17.3125 23.65625 -15.6875 C 24.71875 -14.070312 25.25 -12.28125 25.25 -10.3125 Z M 13.65625 -15.890625 C 12.195312 -15.890625 10.921875 -15.554688 9.828125 -14.890625 C 8.742188 -14.234375 7.988281 -13.316406 7.5625 -12.140625 L 19.515625 -12.140625 C 19.085938 -13.285156 18.335938 -14.195312 17.265625 -14.875 C 16.191406 -15.550781 14.988281 -15.890625 13.65625 -15.890625 Z M 13.65625 -15.890625 "/></g></g></g><g fill="#ffffff" fill-opacity="1"><g transform="translate(62.317878, 101.141777)"><g><path d="M 13.65625 0.59375 C 11.40625 0.59375 9.363281 0.109375 7.53125 -0.859375 C 5.695312 -1.828125 4.257812 -3.132812 3.21875 -4.78125 C 2.1875 -6.425781 1.671875 -8.21875 1.671875 -10.15625 C 1.671875 -12.09375 2.1875 -13.882812 3.21875 -15.53125 C 4.257812 -17.175781 5.695312 -18.484375 7.53125 -19.453125 C 9.363281 -20.421875 11.40625 -20.90625 13.65625 -20.90625 C 15.675781 -20.90625 17.492188 -20.5 19.109375 -19.6875 C 20.734375 -18.882812 22.039062 -17.851562 23.03125 -16.59375 C 24.03125 -15.332031 24.675781 -14.023438 24.96875 -12.671875 L 19.203125 -12.671875 C 18.878906 -13.378906 18.257812 -14.054688 17.34375 -14.703125 C 16.425781 -15.359375 15.195312 -15.6875 13.65625 -15.6875 C 11.800781 -15.6875 10.300781 -15.160156 9.15625 -14.109375 C 8.019531 -13.066406 7.453125 -11.75 7.453125 -10.15625 C 7.453125 -8.5625 8.019531 -7.238281 9.15625 -6.1875 C 10.300781 -5.144531 11.800781 -4.625 13.65625 -4.625 C 15.195312 -4.625 16.414062 -4.953125 17.3125 -5.609375 C 18.21875 -6.273438 18.847656 -6.953125 19.203125 -7.640625 L 24.96875 -7.640625 C 24.65625 -6.316406 24 -5.015625 23 -3.734375 C 22 -2.460938 20.695312 -1.421875 19.09375 -0.609375 C 17.488281 0.191406 15.675781 0.59375 13.65625 0.59375 Z M 13.65625 0.59375 "/></g></g></g><g fill="#ffffff" fill-opacity="1"><g transform="translate(86.450188, 101.141777)"><g><path d="M 3.0625 0 L 3.0625 -27.875 L 8.84375 -27.875 L 8.84375 -18.328125 L 9.046875 -18.328125 C 9.648438 -18.960938 10.53125 -19.550781 11.6875 -20.09375 C 12.84375 -20.632812 14.21875 -20.90625 15.8125 -20.90625 C 17.613281 -20.90625 19.234375 -20.5 20.671875 -19.6875 C 22.109375 -18.882812 23.226562 -17.75 24.03125 -16.28125 C 24.84375 -14.820312 25.25 -13.148438 25.25 -11.265625 L 25.25 0 L 19.46875 0 L 19.46875 -10.234375 C 19.46875 -11.742188 18.976562 -13.003906 18 -14.015625 C 17.019531 -15.023438 15.734375 -15.53125 14.140625 -15.53125 C 12.578125 -15.53125 11.300781 -15.023438 10.3125 -14.015625 C 9.332031 -13.003906 8.84375 -11.742188 8.84375 -10.234375 L 8.84375 0 Z M 3.0625 0 "/></g></g></g><g clip-path="url(#db24ad196e)"><g clip-path="url(#259fcee6dc)"><g transform="matrix(1, 0, 0, 1, 96, 39)"><g clip-path="url(#30a289c76c)"><g clip-path="url(#b30d9d69ea)"><g clip-path="url(#d52fe05166)"><path fill="#ffffff" d="M 0.824219 0.746094 L 31.414062 0.746094 L 31.414062 27.476562 L 0.824219 27.476562 Z M 0.824219 0.746094 " fill-opacity="1" fill-rule="nonzero"/></g></g></g></g></g></g><g transform="matrix(1, 0, 0, 1, 101, 42)"><g clip-path="url(#93b2e3f171)"><g fill="#3530ff" fill-opacity="1"><g transform="translate(0.880224, 11.075482)"><g><path d="M 3.734375 0.125 C 3.273438 0.125 2.875 0.0351562 2.53125 -0.140625 C 2.1875 -0.328125 1.921875 -0.515625 1.734375 -0.703125 L 1.6875 -0.703125 L 1.5 0 L 0.953125 0 L 0.953125 -7.28125 L 1.6875 -7.28125 L 1.6875 -4.5 L 1.734375 -4.5 C 1.898438 -4.6875 2.15625 -4.867188 2.5 -5.046875 C 2.851562 -5.234375 3.265625 -5.328125 3.734375 -5.328125 C 4.210938 -5.328125 4.660156 -5.210938 5.078125 -4.984375 C 5.503906 -4.753906 5.84375 -4.429688 6.09375 -4.015625 C 6.34375 -3.597656 6.46875 -3.128906 6.46875 -2.609375 C 6.46875 -2.078125 6.34375 -1.601562 6.09375 -1.1875 C 5.84375 -0.769531 5.503906 -0.445312 5.078125 -0.21875 C 4.660156 0.0078125 4.210938 0.125 3.734375 0.125 Z M 3.703125 -0.5625 C 4.085938 -0.5625 4.429688 -0.644531 4.734375 -0.8125 C 5.046875 -0.988281 5.289062 -1.226562 5.46875 -1.53125 C 5.65625 -1.84375 5.75 -2.203125 5.75 -2.609375 C 5.75 -3.003906 5.65625 -3.351562 5.46875 -3.65625 C 5.289062 -3.96875 5.046875 -4.207031 4.734375 -4.375 C 4.429688 -4.550781 4.085938 -4.640625 3.703125 -4.640625 C 3.328125 -4.640625 2.984375 -4.550781 2.671875 -4.375 C 2.367188 -4.207031 2.128906 -3.96875 1.953125 -3.65625 C 1.773438 -3.351562 1.6875 -3.003906 1.6875 -2.609375 C 1.6875 -2.203125 1.773438 -1.84375 1.953125 -1.53125 C 2.128906 -1.226562 2.367188 -0.988281 2.671875 -0.8125 C 2.984375 -0.644531 3.328125 -0.5625 3.703125 -0.5625 Z M 3.703125 -0.5625 "/></g></g></g><g fill="#3530ff" fill-opacity="1"><g transform="translate(7.288515, 11.075482)"><g><path d="M 1.6875 0 L 0.953125 0 L 0.953125 -7.28125 L 1.6875 -7.28125 Z M 1.6875 0 "/></g></g></g><g fill="#3530ff" fill-opacity="1"><g transform="translate(9.337915, 11.075482)"><g><path d="M 3.3125 0.125 C 2.820312 0.125 2.363281 0.0078125 1.9375 -0.21875 C 1.507812 -0.457031 1.164062 -0.785156 0.90625 -1.203125 C 0.65625 -1.617188 0.53125 -2.085938 0.53125 -2.609375 C 0.53125 -3.117188 0.65625 -3.582031 0.90625 -4 C 1.164062 -4.414062 1.507812 -4.738281 1.9375 -4.96875 C 2.363281 -5.207031 2.820312 -5.328125 3.3125 -5.328125 C 3.8125 -5.328125 4.273438 -5.207031 4.703125 -4.96875 C 5.128906 -4.738281 5.46875 -4.414062 5.71875 -4 C 5.976562 -3.582031 6.109375 -3.117188 6.109375 -2.609375 C 6.109375 -2.085938 5.976562 -1.617188 5.71875 -1.203125 C 5.46875 -0.785156 5.128906 -0.457031 4.703125 -0.21875 C 4.273438 0.0078125 3.8125 0.125 3.3125 0.125 Z M 3.3125 -0.5625 C 3.6875 -0.5625 4.03125 -0.644531 4.34375 -0.8125 C 4.664062 -0.988281 4.914062 -1.234375 5.09375 -1.546875 C 5.28125 -1.859375 5.375 -2.210938 5.375 -2.609375 C 5.375 -2.992188 5.28125 -3.34375 5.09375 -3.65625 C 4.914062 -3.96875 4.664062 -4.207031 4.34375 -4.375 C 4.03125 -4.550781 3.6875 -4.640625 3.3125 -4.640625 C 2.9375 -4.640625 2.59375 -4.550781 2.28125 -4.375 C 1.96875 -4.207031 1.71875 -3.96875 1.53125 -3.65625 C 1.351562 -3.34375 1.265625 -2.992188 1.265625 -2.609375 C 1.265625 -2.210938 1.351562 -1.859375 1.53125 -1.546875 C 1.71875 -1.234375 1.96875 -0.988281 2.28125 -0.8125 C 2.59375 -0.644531 2.9375 -0.5625 3.3125 -0.5625 Z M 3.3125 -0.5625 "/></g></g></g><g clip-path="url(#53e16bbf3f)"><g fill="#3530ff" fill-opacity="1"><g transform="translate(15.382097, 11.075482)"><g><path d="M 3.34375 1.984375 C 2.664062 1.984375 2.109375 1.84375 1.671875 1.5625 C 1.234375 1.28125 0.941406 0.894531 0.796875 0.40625 L 1.546875 0.40625 C 1.671875 0.6875 1.882812 0.90625 2.1875 1.0625 C 2.488281 1.21875 2.875 1.296875 3.34375 1.296875 C 3.90625 1.296875 4.359375 1.144531 4.703125 0.84375 C 5.046875 0.550781 5.21875 0.160156 5.21875 -0.328125 L 5.21875 -1 L 5.15625 -1 C 5.03125 -0.8125 4.796875 -0.625 4.453125 -0.4375 C 4.109375 -0.257812 3.695312 -0.171875 3.21875 -0.171875 C 2.707031 -0.171875 2.242188 -0.28125 1.828125 -0.5 C 1.421875 -0.71875 1.101562 -1.023438 0.875 -1.421875 C 0.644531 -1.816406 0.53125 -2.257812 0.53125 -2.75 C 0.53125 -3.25 0.644531 -3.691406 0.875 -4.078125 C 1.113281 -4.472656 1.4375 -4.78125 1.84375 -5 C 2.257812 -5.21875 2.71875 -5.328125 3.21875 -5.328125 C 3.6875 -5.328125 4.082031 -5.234375 4.40625 -5.046875 C 4.738281 -4.867188 4.988281 -4.6875 5.15625 -4.5 L 5.21875 -4.5 L 5.40625 -5.203125 L 5.9375 -5.203125 L 5.9375 -0.359375 C 5.9375 0.0976562 5.828125 0.503906 5.609375 0.859375 C 5.390625 1.210938 5.082031 1.488281 4.6875 1.6875 C 4.289062 1.882812 3.84375 1.984375 3.34375 1.984375 Z M 3.234375 -0.859375 C 3.597656 -0.859375 3.929688 -0.9375 4.234375 -1.09375 C 4.535156 -1.257812 4.773438 -1.484375 4.953125 -1.765625 C 5.128906 -2.054688 5.21875 -2.382812 5.21875 -2.75 C 5.21875 -3.101562 5.128906 -3.425781 4.953125 -3.71875 C 4.773438 -4.007812 4.535156 -4.234375 4.234375 -4.390625 C 3.929688 -4.554688 3.597656 -4.640625 3.234375 -4.640625 C 2.867188 -4.640625 2.535156 -4.554688 2.234375 -4.390625 C 1.929688 -4.234375 1.691406 -4.007812 1.515625 -3.71875 C 1.347656 -3.425781 1.265625 -3.101562 1.265625 -2.75 C 1.265625 -2.382812 1.347656 -2.054688 1.515625 -1.765625 C 1.691406 -1.484375 1.929688 -1.257812 2.234375 -1.09375 C 2.535156 -0.9375 2.867188 -0.859375 3.234375 -0.859375 Z M 3.234375 -0.859375 "/></g></g></g></g></g></g><g transform="matrix(1, 0, 0, 1, 72, 101)"><g clip-path="url(#2f85a8fd03)"><g fill="#ffffff" fill-opacity="1"><g transform="translate(0.39952, 9.730769)"><g><path d="M 3.25 0.109375 C 2.851562 0.109375 2.503906 0.03125 2.203125 -0.125 C 1.910156 -0.28125 1.679688 -0.441406 1.515625 -0.609375 L 1.46875 -0.609375 L 1.3125 0 L 0.828125 0 L 0.828125 -6.34375 L 1.46875 -6.34375 L 1.46875 -3.921875 L 1.515625 -3.921875 C 1.660156 -4.085938 1.882812 -4.25 2.1875 -4.40625 C 2.488281 -4.5625 2.84375 -4.640625 3.25 -4.640625 C 3.664062 -4.640625 4.054688 -4.539062 4.421875 -4.34375 C 4.785156 -4.144531 5.078125 -3.863281 5.296875 -3.5 C 5.523438 -3.132812 5.640625 -2.722656 5.640625 -2.265625 C 5.640625 -1.804688 5.523438 -1.394531 5.296875 -1.03125 C 5.078125 -0.664062 4.785156 -0.382812 4.421875 -0.1875 C 4.054688 0.0078125 3.664062 0.109375 3.25 0.109375 Z M 3.21875 -0.484375 C 3.550781 -0.484375 3.851562 -0.554688 4.125 -0.703125 C 4.394531 -0.859375 4.609375 -1.066406 4.765625 -1.328125 C 4.921875 -1.597656 5 -1.910156 5 -2.265625 C 5 -2.617188 4.921875 -2.925781 4.765625 -3.1875 C 4.609375 -3.457031 4.394531 -3.664062 4.125 -3.8125 C 3.851562 -3.96875 3.550781 -4.046875 3.21875 -4.046875 C 2.894531 -4.046875 2.597656 -3.96875 2.328125 -3.8125 C 2.066406 -3.664062 1.859375 -3.457031 1.703125 -3.1875 C 1.546875 -2.925781 1.46875 -2.617188 1.46875 -2.265625 C 1.46875 -1.910156 1.546875 -1.597656 1.703125 -1.328125 C 1.859375 -1.066406 2.066406 -0.859375 2.328125 -0.703125 C 2.597656 -0.554688 2.894531 -0.484375 3.21875 -0.484375 Z M 3.21875 -0.484375 "/></g></g></g><g fill="#ffffff" fill-opacity="1"><g transform="translate(5.844922, 9.730769)"><g><path d="M 4.28125 -4.53125 L 4.953125 -4.53125 L 2.59375 0.4375 C 2.382812 0.894531 2.164062 1.210938 1.9375 1.390625 C 1.71875 1.578125 1.476562 1.671875 1.21875 1.671875 C 1.050781 1.671875 0.90625 1.644531 0.78125 1.59375 L 0.78125 1.015625 C 0.882812 1.054688 1.003906 1.078125 1.140625 1.078125 C 1.316406 1.078125 1.460938 1.035156 1.578125 0.953125 C 1.703125 0.867188 1.8125 0.726562 1.90625 0.53125 L 2.25 -0.125 L 0.171875 -4.53125 L 0.875 -4.53125 L 2.578125 -0.84375 Z M 4.28125 -4.53125 "/></g></g></g><g fill="#ffffff" fill-opacity="1"><g transform="translate(10.085267, 9.730769)"><g/></g></g><g fill="#ffffff" fill-opacity="1"><g transform="translate(12.10577, 9.730769)"><g><path d="M 1.46875 0 L 0.828125 0 L 0.828125 -6.34375 L 1.46875 -6.34375 Z M 1.46875 0 "/></g></g></g><g fill="#ffffff" fill-opacity="1"><g transform="translate(13.890699, 9.730769)"><g><path d="M 1.421875 0 L 0.78125 0 L 0.78125 -4.53125 L 1.421875 -4.53125 Z M 1.109375 -5.234375 C 0.972656 -5.234375 0.863281 -5.269531 0.78125 -5.34375 C 0.695312 -5.425781 0.65625 -5.53125 0.65625 -5.65625 C 0.65625 -5.78125 0.695312 -5.882812 0.78125 -5.96875 C 0.863281 -6.050781 0.972656 -6.09375 1.109375 -6.09375 C 1.234375 -6.09375 1.335938 -6.050781 1.421875 -5.96875 C 1.515625 -5.882812 1.5625 -5.78125 1.5625 -5.65625 C 1.5625 -5.53125 1.515625 -5.425781 1.421875 -5.34375 C 1.335938 -5.269531 1.234375 -5.234375 1.109375 -5.234375 Z M 1.109375 -5.234375 "/></g></g></g><g fill="#ffffff" fill-opacity="1"><g transform="translate(15.58502, 9.730769)"><g><path d="M 1.46875 0 L 0.828125 0 L 0.828125 -6.34375 L 1.46875 -6.34375 Z M 1.46875 0 "/></g></g></g><g fill="#ffffff" fill-opacity="1"><g transform="translate(17.369948, 9.730769)"><g><path d="M 4.28125 -4.53125 L 4.953125 -4.53125 L 2.59375 0.4375 C 2.382812 0.894531 2.164062 1.210938 1.9375 1.390625 C 1.71875 1.578125 1.476562 1.671875 1.21875 1.671875 C 1.050781 1.671875 0.90625 1.644531 0.78125 1.59375 L 0.78125 1.015625 C 0.882812 1.054688 1.003906 1.078125 1.140625 1.078125 C 1.316406 1.078125 1.460938 1.035156 1.578125 0.953125 C 1.703125 0.867188 1.8125 0.726562 1.90625 0.53125 L 2.25 -0.125 L 0.171875 -4.53125 L 0.875 -4.53125 L 2.578125 -0.84375 Z M 4.28125 -4.53125 "/></g></g></g><g fill="#ffffff" fill-opacity="1"><g transform="translate(21.972716, 9.730769)"><g><path d="M 2.765625 0.109375 C 2.304688 0.109375 1.941406 -0.03125 1.671875 -0.3125 C 1.398438 -0.601562 1.265625 -1 1.265625 -1.5 L 1.265625 -3.9375 L 0.265625 -3.9375 L 0.265625 -4.53125 L 0.78125 -4.53125 C 1.164062 -4.53125 1.359375 -4.722656 1.359375 -5.109375 L 1.359375 -5.734375 L 1.890625 -5.734375 L 1.890625 -4.53125 L 3.296875 -4.53125 L 3.296875 -3.9375 L 1.890625 -3.9375 L 1.890625 -1.5 C 1.890625 -1.164062 1.96875 -0.910156 2.125 -0.734375 C 2.28125 -0.566406 2.503906 -0.484375 2.796875 -0.484375 C 2.984375 -0.484375 3.148438 -0.519531 3.296875 -0.59375 L 3.296875 -0.015625 C 3.148438 0.0664062 2.972656 0.109375 2.765625 0.109375 Z M 2.765625 0.109375 "/></g></g></g><g fill="#ffffff" fill-opacity="1"><g transform="translate(25.062369, 9.730769)"><g><path d="M 5.234375 -2.40625 C 5.234375 -2.238281 5.21875 -2.085938 5.1875 -1.953125 L 1.109375 -1.953125 C 1.179688 -1.503906 1.378906 -1.144531 1.703125 -0.875 C 2.023438 -0.613281 2.421875 -0.484375 2.890625 -0.484375 C 3.578125 -0.484375 4.078125 -0.710938 4.390625 -1.171875 L 5.03125 -1.171875 C 4.875 -0.796875 4.601562 -0.488281 4.21875 -0.25 C 3.84375 -0.0078125 3.390625 0.109375 2.859375 0.109375 C 2.429688 0.109375 2.03125 0.0078125 1.65625 -0.1875 C 1.289062 -0.382812 1 -0.660156 0.78125 -1.015625 C 0.570312 -1.378906 0.46875 -1.796875 0.46875 -2.265625 C 0.46875 -2.722656 0.578125 -3.128906 0.796875 -3.484375 C 1.023438 -3.847656 1.320312 -4.128906 1.6875 -4.328125 C 2.050781 -4.535156 2.445312 -4.640625 2.875 -4.640625 C 3.289062 -4.640625 3.675781 -4.539062 4.03125 -4.34375 C 4.394531 -4.144531 4.6875 -3.875 4.90625 -3.53125 C 5.125 -3.1875 5.234375 -2.8125 5.234375 -2.40625 Z M 2.859375 -4.046875 C 2.566406 -4.046875 2.296875 -3.984375 2.046875 -3.859375 C 1.796875 -3.734375 1.585938 -3.554688 1.421875 -3.328125 C 1.253906 -3.097656 1.148438 -2.832031 1.109375 -2.53125 L 4.59375 -2.53125 C 4.570312 -2.820312 4.476562 -3.082031 4.3125 -3.3125 C 4.15625 -3.539062 3.945312 -3.71875 3.6875 -3.84375 C 3.4375 -3.976562 3.160156 -4.046875 2.859375 -4.046875 Z M 2.859375 -4.046875 "/></g></g></g><g fill="#ffffff" fill-opacity="1"><g transform="translate(30.235953, 9.730769)"><g><path d="M 2.890625 0.109375 C 2.460938 0.109375 2.0625 0.0078125 1.6875 -0.1875 C 1.320312 -0.394531 1.023438 -0.679688 0.796875 -1.046875 C 0.578125 -1.410156 0.46875 -1.816406 0.46875 -2.265625 C 0.46875 -2.722656 0.578125 -3.128906 0.796875 -3.484375 C 1.023438 -3.847656 1.320312 -4.128906 1.6875 -4.328125 C 2.0625 -4.535156 2.460938 -4.640625 2.890625 -4.640625 C 3.273438 -4.640625 3.628906 -4.554688 3.953125 -4.390625 C 4.273438 -4.234375 4.535156 -4.023438 4.734375 -3.765625 C 4.941406 -3.503906 5.078125 -3.222656 5.140625 -2.921875 L 4.5 -2.921875 C 4.375 -3.285156 4.171875 -3.5625 3.890625 -3.75 C 3.617188 -3.945312 3.285156 -4.046875 2.890625 -4.046875 C 2.566406 -4.046875 2.265625 -3.96875 1.984375 -3.8125 C 1.710938 -3.664062 1.492188 -3.457031 1.328125 -3.1875 C 1.171875 -2.914062 1.09375 -2.609375 1.09375 -2.265625 C 1.09375 -1.921875 1.171875 -1.613281 1.328125 -1.34375 C 1.492188 -1.070312 1.710938 -0.859375 1.984375 -0.703125 C 2.265625 -0.554688 2.566406 -0.484375 2.890625 -0.484375 C 3.285156 -0.484375 3.625 -0.578125 3.90625 -0.765625 C 4.1875 -0.960938 4.382812 -1.242188 4.5 -1.609375 L 5.140625 -1.609375 C 5.066406 -1.304688 4.929688 -1.023438 4.734375 -0.765625 C 4.535156 -0.503906 4.273438 -0.289062 3.953125 -0.125 C 3.628906 0.03125 3.273438 0.109375 2.890625 0.109375 Z M 2.890625 0.109375 "/></g></g></g><g clip-path="url(#3d9a54a046)"><g fill="#ffffff" fill-opacity="1"><g transform="translate(35.273629, 9.730769)"><g><path d="M 0.828125 0 L 0.828125 -6.34375 L 1.46875 -6.34375 L 1.46875 -3.921875 L 1.515625 -3.921875 C 1.648438 -4.117188 1.851562 -4.285156 2.125 -4.421875 C 2.394531 -4.566406 2.734375 -4.640625 3.140625 -4.640625 C 3.535156 -4.640625 3.890625 -4.550781 4.203125 -4.375 C 4.523438 -4.195312 4.773438 -3.941406 4.953125 -3.609375 C 5.140625 -3.285156 5.234375 -2.898438 5.234375 -2.453125 L 5.234375 0 L 4.609375 0 L 4.609375 -2.421875 C 4.609375 -2.929688 4.46875 -3.328125 4.1875 -3.609375 C 3.90625 -3.898438 3.535156 -4.046875 3.078125 -4.046875 C 2.585938 -4.046875 2.195312 -3.898438 1.90625 -3.609375 C 1.613281 -3.328125 1.46875 -2.929688 1.46875 -2.421875 L 1.46875 0 Z M 0.828125 0 "/></g></g></g></g></g></g></g></g></g></svg>