<svg xmlns="http://www.w3.org/2000/svg" xmlns:xlink="http://www.w3.org/1999/xlink" width="202" zoomAndPan="magnify" viewBox="0 0 151.5 175.499993" height="234" preserveAspectRatio="xMidYMid meet" version="1.0"><defs><g/><clipPath id="fab86fc920"><rect x="0" width="36" y="0" height="115"/></clipPath><clipPath id="62776aabbf"><path d="M 48 39 L 68.828125 39 L 68.828125 66 L 48 66 Z M 48 39 " clip-rule="nonzero"/></clipPath><clipPath id="fad4d14258"><rect x="0" width="69" y="0" height="75"/></clipPath><clipPath id="ca00f28b4a"><path d="M 122.683594 66.121094 L 150.519531 66.121094 L 150.519531 90.539062 L 122.683594 90.539062 Z M 122.683594 66.121094 " clip-rule="nonzero"/></clipPath><clipPath id="bd3fab5636"><path d="M 140.820312 66.214844 L 132.339844 66.214844 C 127.003906 66.214844 122.683594 70.441406 122.683594 75.652344 C 122.683594 79.421875 124.949219 82.675781 128.222656 84.1875 L 128.222656 90.539062 L 134.78125 85.085938 L 140.820312 85.085938 C 146.15625 85.085938 150.480469 80.859375 150.480469 75.648438 C 150.480469 70.441406 146.15625 66.214844 140.820312 66.214844 Z M 140.820312 66.214844 " clip-rule="nonzero"/></clipPath><clipPath id="981572b860"><path d="M 0.683594 0.121094 L 28.519531 0.121094 L 28.519531 24.539062 L 0.683594 24.539062 Z M 0.683594 0.121094 " clip-rule="nonzero"/></clipPath><clipPath id="384c20d1de"><path d="M 18.820312 0.214844 L 10.339844 0.214844 C 5.003906 0.214844 0.683594 4.441406 0.683594 9.652344 C 0.683594 13.421875 2.949219 16.675781 6.222656 18.1875 L 6.222656 24.539062 L 12.78125 19.085938 L 18.820312 19.085938 C 24.15625 19.085938 28.480469 14.859375 28.480469 9.648438 C 28.480469 4.441406 24.15625 0.214844 18.820312 0.214844 Z M 18.820312 0.214844 " clip-rule="nonzero"/></clipPath><clipPath id="71c393748b"><rect x="0" width="29" y="0" height="25"/></clipPath><clipPath id="0271e6fb95"><path d="M 13 5 L 19 5 L 19 12.894531 L 13 12.894531 Z M 13 5 " clip-rule="nonzero"/></clipPath><clipPath id="c6e968d6b0"><rect x="0" width="20" y="0" height="13"/></clipPath><clipPath id="115b78fe28"><rect x="0" width="38" y="0" height="12"/></clipPath></defs><g transform="matrix(1, 0, 0, 1, 35, 30)"><g clip-path="url(#fab86fc920)"><g fill="#3530ff" fill-opacity="1"><g transform="translate(0.50297, 91.708474)"><g><path d="M 27.890625 1.09375 C 23.253906 1.09375 19.5625 -0.335938 16.8125 -3.203125 C 14.070312 -6.066406 12.703125 -10.054688 12.703125 -15.171875 L 12.703125 -39.6875 L 2.75 -39.6875 L 2.75 -45.71875 L 7.859375 -45.71875 C 11.765625 -45.71875 13.71875 -47.671875 13.71875 -51.578125 L 13.71875 -57.875 L 19.109375 -57.875 L 19.109375 -45.71875 L 33.28125 -45.71875 L 33.28125 -39.6875 L 19.109375 -39.6875 L 19.109375 -15.171875 C 19.109375 -11.765625 19.882812 -9.207031 21.4375 -7.5 C 23 -5.789062 25.238281 -4.9375 28.15625 -4.9375 C 30.050781 -4.9375 31.757812 -5.269531 33.28125 -5.9375 L 33.28125 -0.09375 C 31.757812 0.695312 29.960938 1.09375 27.890625 1.09375 Z M 27.890625 1.09375 "/></g></g></g></g></g><g transform="matrix(1, 0, 0, 1, 68, 57)"><g clip-path="url(#fad4d14258)"><g fill="#6c88ff" fill-opacity="1"><g transform="translate(0.853807, 36.847411)"><g><path d="M 12.421875 0.546875 C 10.367188 0.546875 8.507812 0.101562 6.84375 -0.78125 C 5.175781 -1.664062 3.867188 -2.851562 2.921875 -4.34375 C 1.984375 -5.84375 1.515625 -7.472656 1.515625 -9.234375 C 1.515625 -11.003906 1.984375 -12.632812 2.921875 -14.125 C 3.867188 -15.625 5.175781 -16.8125 6.84375 -17.6875 C 8.507812 -18.570312 10.367188 -19.015625 12.421875 -19.015625 C 14.484375 -19.015625 16.347656 -18.570312 18.015625 -17.6875 C 19.679688 -16.8125 20.984375 -15.625 21.921875 -14.125 C 22.859375 -12.632812 23.328125 -11.003906 23.328125 -9.234375 C 23.328125 -7.472656 22.859375 -5.84375 21.921875 -4.34375 C 20.984375 -2.851562 19.679688 -1.664062 18.015625 -0.78125 C 16.347656 0.101562 14.484375 0.546875 12.421875 0.546875 Z M 12.421875 -4.203125 C 14.117188 -4.203125 15.484375 -4.675781 16.515625 -5.625 C 17.554688 -6.582031 18.078125 -7.785156 18.078125 -9.234375 C 18.078125 -10.679688 17.554688 -11.882812 16.515625 -12.84375 C 15.484375 -13.800781 14.117188 -14.28125 12.421875 -14.28125 C 10.734375 -14.28125 9.367188 -13.800781 8.328125 -12.84375 C 7.296875 -11.882812 6.78125 -10.679688 6.78125 -9.234375 C 6.78125 -7.785156 7.296875 -6.582031 8.328125 -5.625 C 9.367188 -4.675781 10.734375 -4.203125 12.421875 -4.203125 Z M 12.421875 -4.203125 "/></g></g></g><g fill="#6c88ff" fill-opacity="1"><g transform="translate(23.646381, 36.847411)"><g><path d="M 2.609375 6.515625 L 2.609375 -18.484375 L 6.59375 -18.484375 L 7.390625 -16.671875 L 7.578125 -16.671875 C 9.265625 -18.234375 11.410156 -19.015625 14.015625 -19.015625 C 15.828125 -19.015625 17.484375 -18.59375 18.984375 -17.75 C 20.484375 -16.90625 21.664062 -15.738281 22.53125 -14.25 C 23.40625 -12.769531 23.84375 -11.097656 23.84375 -9.234375 C 23.84375 -7.378906 23.40625 -5.707031 22.53125 -4.21875 C 21.664062 -2.738281 20.484375 -1.570312 18.984375 -0.71875 C 17.484375 0.125 15.828125 0.546875 14.015625 0.546875 C 12.597656 0.546875 11.390625 0.328125 10.390625 -0.109375 C 9.398438 -0.546875 8.617188 -1.039062 8.046875 -1.59375 L 7.859375 -1.59375 L 7.859375 6.515625 Z M 13.21875 -4.203125 C 14.75 -4.203125 16.023438 -4.675781 17.046875 -5.625 C 18.078125 -6.582031 18.59375 -7.785156 18.59375 -9.234375 C 18.59375 -10.679688 18.078125 -11.882812 17.046875 -12.84375 C 16.023438 -13.800781 14.75 -14.28125 13.21875 -14.28125 C 11.695312 -14.28125 10.421875 -13.800781 9.390625 -12.84375 C 8.367188 -11.882812 7.859375 -10.679688 7.859375 -9.234375 C 7.859375 -7.785156 8.367188 -6.582031 9.390625 -5.625 C 10.421875 -4.675781 11.695312 -4.203125 13.21875 -4.203125 Z M 13.21875 -4.203125 "/></g></g></g><g fill="#3530ff" fill-opacity="1"><g transform="translate(0.853807, 65.082968)"><g><path d="M 22.96875 -9.390625 C 22.96875 -8.441406 22.882812 -7.765625 22.71875 -7.359375 L 6.921875 -7.359375 C 7.304688 -6.316406 8.003906 -5.5 9.015625 -4.90625 C 10.035156 -4.3125 11.222656 -4.015625 12.578125 -4.015625 C 14.429688 -4.015625 15.804688 -4.441406 16.703125 -5.296875 L 22.28125 -5.296875 C 21.84375 -4.296875 21.171875 -3.347656 20.265625 -2.453125 C 19.367188 -1.566406 18.253906 -0.84375 16.921875 -0.28125 C 15.585938 0.269531 14.113281 0.546875 12.5 0.546875 C 10.425781 0.546875 8.546875 0.101562 6.859375 -0.78125 C 5.179688 -1.664062 3.867188 -2.851562 2.921875 -4.34375 C 1.984375 -5.84375 1.515625 -7.472656 1.515625 -9.234375 C 1.515625 -11.003906 1.984375 -12.632812 2.921875 -14.125 C 3.867188 -15.625 5.175781 -16.8125 6.84375 -17.6875 C 8.507812 -18.570312 10.367188 -19.015625 12.421875 -19.015625 C 14.285156 -19.015625 16.023438 -18.59375 17.640625 -17.75 C 19.265625 -16.90625 20.554688 -15.742188 21.515625 -14.265625 C 22.484375 -12.796875 22.96875 -11.171875 22.96875 -9.390625 Z M 12.421875 -14.453125 C 11.097656 -14.453125 9.941406 -14.148438 8.953125 -13.546875 C 7.960938 -12.941406 7.273438 -12.109375 6.890625 -11.046875 L 17.75 -11.046875 C 17.363281 -12.085938 16.679688 -12.914062 15.703125 -13.53125 C 14.722656 -14.144531 13.628906 -14.453125 12.421875 -14.453125 Z M 12.421875 -14.453125 "/></g></g></g><g fill="#3530ff" fill-opacity="1"><g transform="translate(23.284019, 65.082968)"><g><path d="M 12.421875 0.546875 C 10.367188 0.546875 8.507812 0.101562 6.84375 -0.78125 C 5.175781 -1.664062 3.867188 -2.851562 2.921875 -4.34375 C 1.984375 -5.84375 1.515625 -7.472656 1.515625 -9.234375 C 1.515625 -11.003906 1.984375 -12.632812 2.921875 -14.125 C 3.867188 -15.625 5.175781 -16.8125 6.84375 -17.6875 C 8.507812 -18.570312 10.367188 -19.015625 12.421875 -19.015625 C 14.265625 -19.015625 15.921875 -18.644531 17.390625 -17.90625 C 18.867188 -17.175781 20.0625 -16.238281 20.96875 -15.09375 C 21.875 -13.945312 22.457031 -12.753906 22.71875 -11.515625 L 17.46875 -11.515625 C 17.175781 -12.171875 16.613281 -12.796875 15.78125 -13.390625 C 14.945312 -13.984375 13.828125 -14.28125 12.421875 -14.28125 C 10.734375 -14.28125 9.367188 -13.800781 8.328125 -12.84375 C 7.296875 -11.882812 6.78125 -10.679688 6.78125 -9.234375 C 6.78125 -7.785156 7.296875 -6.582031 8.328125 -5.625 C 9.367188 -4.675781 10.734375 -4.203125 12.421875 -4.203125 C 13.828125 -4.203125 14.941406 -4.503906 15.765625 -5.109375 C 16.585938 -5.710938 17.15625 -6.328125 17.46875 -6.953125 L 22.71875 -6.953125 C 22.425781 -5.742188 21.828125 -4.5625 20.921875 -3.40625 C 20.015625 -2.25 18.832031 -1.300781 17.375 -0.5625 C 15.914062 0.175781 14.265625 0.546875 12.421875 0.546875 Z M 12.421875 0.546875 "/></g></g></g><g clip-path="url(#62776aabbf)"><g fill="#3530ff" fill-opacity="1"><g transform="translate(45.243157, 65.082968)"><g><path d="M 2.796875 0 L 2.796875 -25.359375 L 8.046875 -25.359375 L 8.046875 -16.671875 L 8.21875 -16.671875 C 8.78125 -17.242188 9.585938 -17.773438 10.640625 -18.265625 C 11.691406 -18.765625 12.941406 -19.015625 14.390625 -19.015625 C 16.023438 -19.015625 17.492188 -18.644531 18.796875 -17.90625 C 20.109375 -17.175781 21.128906 -16.144531 21.859375 -14.8125 C 22.597656 -13.488281 22.96875 -11.96875 22.96875 -10.25 L 22.96875 0 L 17.71875 0 L 17.71875 -9.3125 C 17.71875 -10.6875 17.269531 -11.832031 16.375 -12.75 C 15.476562 -13.664062 14.304688 -14.125 12.859375 -14.125 C 11.429688 -14.125 10.269531 -13.664062 9.375 -12.75 C 8.488281 -11.832031 8.046875 -10.6875 8.046875 -9.3125 L 8.046875 0 Z M 2.796875 0 "/></g></g></g></g></g></g><g clip-path="url(#ca00f28b4a)"><g clip-path="url(#bd3fab5636)"><g transform="matrix(1, 0, 0, 1, 122, 66)"><g clip-path="url(#71c393748b)"><g clip-path="url(#981572b860)"><g clip-path="url(#384c20d1de)"><path fill="#3530ff" d="M 0.683594 0.214844 L 28.519531 0.214844 L 28.519531 24.539062 L 0.683594 24.539062 Z M 0.683594 0.214844 " fill-opacity="1" fill-rule="nonzero"/></g></g></g></g></g></g><g transform="matrix(1, 0, 0, 1, 127, 68)"><g clip-path="url(#c6e968d6b0)"><g fill="#ffffff" fill-opacity="1"><g transform="translate(0.283706, 10.345155)"><g><path d="M 3.40625 0.109375 C 2.988281 0.109375 2.625 0.03125 2.3125 -0.125 C 2 -0.289062 1.753906 -0.460938 1.578125 -0.640625 L 1.53125 -0.640625 L 1.359375 0 L 0.875 0 L 0.875 -6.625 L 1.53125 -6.625 L 1.53125 -4.09375 L 1.578125 -4.09375 C 1.734375 -4.269531 1.96875 -4.4375 2.28125 -4.59375 C 2.601562 -4.757812 2.976562 -4.84375 3.40625 -4.84375 C 3.832031 -4.84375 4.238281 -4.738281 4.625 -4.53125 C 5.007812 -4.320312 5.316406 -4.03125 5.546875 -3.65625 C 5.773438 -3.28125 5.890625 -2.851562 5.890625 -2.375 C 5.890625 -1.882812 5.773438 -1.453125 5.546875 -1.078125 C 5.316406 -0.703125 5.007812 -0.410156 4.625 -0.203125 C 4.238281 0.00390625 3.832031 0.109375 3.40625 0.109375 Z M 3.375 -0.515625 C 3.71875 -0.515625 4.03125 -0.585938 4.3125 -0.734375 C 4.59375 -0.890625 4.816406 -1.109375 4.984375 -1.390625 C 5.148438 -1.671875 5.234375 -2 5.234375 -2.375 C 5.234375 -2.738281 5.148438 -3.0625 4.984375 -3.34375 C 4.816406 -3.625 4.59375 -3.835938 4.3125 -3.984375 C 4.03125 -4.140625 3.71875 -4.21875 3.375 -4.21875 C 3.03125 -4.21875 2.71875 -4.140625 2.4375 -3.984375 C 2.15625 -3.835938 1.929688 -3.625 1.765625 -3.34375 C 1.609375 -3.0625 1.53125 -2.738281 1.53125 -2.375 C 1.53125 -2 1.609375 -1.671875 1.765625 -1.390625 C 1.929688 -1.109375 2.15625 -0.890625 2.4375 -0.734375 C 2.71875 -0.585938 3.03125 -0.515625 3.375 -0.515625 Z M 3.375 -0.515625 "/></g></g></g><g fill="#ffffff" fill-opacity="1"><g transform="translate(6.114916, 10.345155)"><g><path d="M 1.53125 0 L 0.875 0 L 0.875 -6.625 L 1.53125 -6.625 Z M 1.53125 0 "/></g></g></g><g fill="#ffffff" fill-opacity="1"><g transform="translate(7.979762, 10.345155)"><g><path d="M 3.015625 0.109375 C 2.566406 0.109375 2.144531 0.00390625 1.75 -0.203125 C 1.363281 -0.410156 1.054688 -0.703125 0.828125 -1.078125 C 0.597656 -1.460938 0.484375 -1.894531 0.484375 -2.375 C 0.484375 -2.84375 0.597656 -3.265625 0.828125 -3.640625 C 1.054688 -4.023438 1.363281 -4.320312 1.75 -4.53125 C 2.144531 -4.738281 2.566406 -4.84375 3.015625 -4.84375 C 3.472656 -4.84375 3.894531 -4.738281 4.28125 -4.53125 C 4.664062 -4.320312 4.972656 -4.023438 5.203125 -3.640625 C 5.441406 -3.265625 5.5625 -2.84375 5.5625 -2.375 C 5.5625 -1.894531 5.441406 -1.460938 5.203125 -1.078125 C 4.972656 -0.703125 4.664062 -0.410156 4.28125 -0.203125 C 3.894531 0.00390625 3.472656 0.109375 3.015625 0.109375 Z M 3.015625 -0.515625 C 3.359375 -0.515625 3.671875 -0.585938 3.953125 -0.734375 C 4.242188 -0.890625 4.472656 -1.109375 4.640625 -1.390625 C 4.804688 -1.679688 4.890625 -2.007812 4.890625 -2.375 C 4.890625 -2.726562 4.804688 -3.046875 4.640625 -3.328125 C 4.472656 -3.617188 4.242188 -3.835938 3.953125 -3.984375 C 3.671875 -4.140625 3.359375 -4.21875 3.015625 -4.21875 C 2.679688 -4.21875 2.367188 -4.140625 2.078125 -3.984375 C 1.785156 -3.835938 1.554688 -3.617188 1.390625 -3.328125 C 1.222656 -3.046875 1.140625 -2.726562 1.140625 -2.375 C 1.140625 -2.007812 1.222656 -1.679688 1.390625 -1.390625 C 1.554688 -1.109375 1.785156 -0.890625 2.078125 -0.734375 C 2.367188 -0.585938 2.679688 -0.515625 3.015625 -0.515625 Z M 3.015625 -0.515625 "/></g></g></g><g clip-path="url(#0271e6fb95)"><g fill="#ffffff" fill-opacity="1"><g transform="translate(13.479652, 10.345155)"><g><path d="M 3.046875 1.796875 C 2.421875 1.796875 1.910156 1.671875 1.515625 1.421875 C 1.117188 1.171875 0.859375 0.820312 0.734375 0.375 L 1.40625 0.375 C 1.519531 0.625 1.710938 0.816406 1.984375 0.953125 C 2.265625 1.097656 2.617188 1.171875 3.046875 1.171875 C 3.554688 1.171875 3.96875 1.035156 4.28125 0.765625 C 4.59375 0.503906 4.75 0.148438 4.75 -0.296875 L 4.75 -0.90625 L 4.703125 -0.90625 C 4.578125 -0.738281 4.359375 -0.570312 4.046875 -0.40625 C 3.734375 -0.238281 3.359375 -0.15625 2.921875 -0.15625 C 2.453125 -0.15625 2.03125 -0.253906 1.65625 -0.453125 C 1.289062 -0.648438 1.003906 -0.925781 0.796875 -1.28125 C 0.585938 -1.644531 0.484375 -2.054688 0.484375 -2.515625 C 0.484375 -2.960938 0.585938 -3.363281 0.796875 -3.71875 C 1.015625 -4.070312 1.3125 -4.347656 1.6875 -4.546875 C 2.0625 -4.742188 2.472656 -4.84375 2.921875 -4.84375 C 3.347656 -4.84375 3.710938 -4.757812 4.015625 -4.59375 C 4.316406 -4.4375 4.546875 -4.269531 4.703125 -4.09375 L 4.75 -4.09375 L 4.921875 -4.734375 L 5.40625 -4.734375 L 5.40625 -0.328125 C 5.40625 0.0859375 5.300781 0.457031 5.09375 0.78125 C 4.894531 1.101562 4.617188 1.351562 4.265625 1.53125 C 3.910156 1.707031 3.503906 1.796875 3.046875 1.796875 Z M 2.9375 -0.78125 C 3.28125 -0.78125 3.585938 -0.851562 3.859375 -1 C 4.128906 -1.144531 4.34375 -1.347656 4.5 -1.609375 C 4.664062 -1.867188 4.75 -2.164062 4.75 -2.5 C 4.75 -2.820312 4.664062 -3.113281 4.5 -3.375 C 4.34375 -3.644531 4.128906 -3.851562 3.859375 -4 C 3.585938 -4.144531 3.28125 -4.21875 2.9375 -4.21875 C 2.601562 -4.21875 2.300781 -4.144531 2.03125 -4 C 1.757812 -3.851562 1.539062 -3.644531 1.375 -3.375 C 1.21875 -3.113281 1.140625 -2.820312 1.140625 -2.5 C 1.140625 -2.164062 1.21875 -1.867188 1.375 -1.609375 C 1.539062 -1.347656 1.757812 -1.144531 2.03125 -1 C 2.300781 -0.851562 2.601562 -0.78125 2.9375 -0.78125 Z M 2.9375 -0.78125 "/></g></g></g></g></g></g><g transform="matrix(1, 0, 0, 1, 100, 122)"><g clip-path="url(#115b78fe28)"><g fill="#000000" fill-opacity="1"><g transform="translate(0.457781, 8.808445)"><g><path d="M 2.96875 0.09375 C 2.601562 0.09375 2.28125 0.0234375 2 -0.109375 C 1.726562 -0.253906 1.519531 -0.40625 1.375 -0.5625 L 1.34375 -0.5625 L 1.1875 0 L 0.765625 0 L 0.765625 -5.78125 L 1.34375 -5.78125 L 1.34375 -3.5625 L 1.375 -3.5625 C 1.507812 -3.71875 1.710938 -3.863281 1.984375 -4 C 2.265625 -4.144531 2.59375 -4.21875 2.96875 -4.21875 C 3.34375 -4.21875 3.695312 -4.125 4.03125 -3.9375 C 4.363281 -3.757812 4.628906 -3.503906 4.828125 -3.171875 C 5.023438 -2.847656 5.125 -2.476562 5.125 -2.0625 C 5.125 -1.644531 5.023438 -1.269531 4.828125 -0.9375 C 4.628906 -0.613281 4.363281 -0.359375 4.03125 -0.171875 C 3.695312 0.00390625 3.34375 0.09375 2.96875 0.09375 Z M 2.9375 -0.453125 C 3.238281 -0.453125 3.507812 -0.515625 3.75 -0.640625 C 4 -0.773438 4.191406 -0.960938 4.328125 -1.203125 C 4.472656 -1.453125 4.546875 -1.738281 4.546875 -2.0625 C 4.546875 -2.382812 4.472656 -2.664062 4.328125 -2.90625 C 4.191406 -3.15625 4 -3.34375 3.75 -3.46875 C 3.507812 -3.601562 3.238281 -3.671875 2.9375 -3.671875 C 2.632812 -3.671875 2.359375 -3.601562 2.109375 -3.46875 C 1.867188 -3.34375 1.679688 -3.15625 1.546875 -2.90625 C 1.410156 -2.664062 1.34375 -2.382812 1.34375 -2.0625 C 1.34375 -1.738281 1.410156 -1.453125 1.546875 -1.203125 C 1.679688 -0.960938 1.867188 -0.773438 2.109375 -0.640625 C 2.359375 -0.515625 2.632812 -0.453125 2.9375 -0.453125 Z M 2.9375 -0.453125 "/></g></g></g><g fill="#000000" fill-opacity="1"><g transform="translate(5.412812, 8.808445)"><g><path d="M 3.890625 -4.125 L 4.5 -4.125 L 2.359375 0.40625 C 2.171875 0.8125 1.972656 1.097656 1.765625 1.265625 C 1.566406 1.441406 1.347656 1.53125 1.109375 1.53125 C 0.953125 1.53125 0.816406 1.503906 0.703125 1.453125 L 0.703125 0.921875 C 0.804688 0.960938 0.914062 0.984375 1.03125 0.984375 C 1.195312 0.984375 1.332031 0.941406 1.4375 0.859375 C 1.550781 0.785156 1.648438 0.660156 1.734375 0.484375 L 2.046875 -0.109375 L 0.15625 -4.125 L 0.796875 -4.125 L 2.34375 -0.765625 Z M 3.890625 -4.125 "/></g></g></g><g fill="#000000" fill-opacity="1"><g transform="translate(9.271304, 8.808445)"><g/></g></g><g fill="#000000" fill-opacity="1"><g transform="translate(11.109856, 8.808445)"><g><path d="M 1.34375 0 L 0.765625 0 L 0.765625 -5.78125 L 1.34375 -5.78125 Z M 1.34375 0 "/></g></g></g><g fill="#000000" fill-opacity="1"><g transform="translate(12.734047, 8.808445)"><g><path d="M 1.296875 0 L 0.71875 0 L 0.71875 -4.125 L 1.296875 -4.125 Z M 1.015625 -4.765625 C 0.890625 -4.765625 0.785156 -4.800781 0.703125 -4.875 C 0.628906 -4.945312 0.59375 -5.035156 0.59375 -5.140625 C 0.59375 -5.253906 0.628906 -5.347656 0.703125 -5.421875 C 0.785156 -5.503906 0.890625 -5.546875 1.015625 -5.546875 C 1.128906 -5.546875 1.222656 -5.503906 1.296875 -5.421875 C 1.378906 -5.347656 1.421875 -5.253906 1.421875 -5.140625 C 1.421875 -5.035156 1.378906 -4.945312 1.296875 -4.875 C 1.222656 -4.800781 1.128906 -4.765625 1.015625 -4.765625 Z M 1.015625 -4.765625 "/></g></g></g><g fill="#000000" fill-opacity="1"><g transform="translate(14.27579, 8.808445)"><g><path d="M 1.34375 0 L 0.765625 0 L 0.765625 -5.78125 L 1.34375 -5.78125 Z M 1.34375 0 "/></g></g></g><g fill="#000000" fill-opacity="1"><g transform="translate(15.899982, 8.808445)"><g><path d="M 3.890625 -4.125 L 4.5 -4.125 L 2.359375 0.40625 C 2.171875 0.8125 1.972656 1.097656 1.765625 1.265625 C 1.566406 1.441406 1.347656 1.53125 1.109375 1.53125 C 0.953125 1.53125 0.816406 1.503906 0.703125 1.453125 L 0.703125 0.921875 C 0.804688 0.960938 0.914062 0.984375 1.03125 0.984375 C 1.195312 0.984375 1.332031 0.941406 1.4375 0.859375 C 1.550781 0.785156 1.648438 0.660156 1.734375 0.484375 L 2.046875 -0.109375 L 0.15625 -4.125 L 0.796875 -4.125 L 2.34375 -0.765625 Z M 3.890625 -4.125 "/></g></g></g><g fill="#000000" fill-opacity="1"><g transform="translate(20.08826, 8.808445)"><g><path d="M 2.515625 0.09375 C 2.097656 0.09375 1.765625 -0.03125 1.515625 -0.28125 C 1.265625 -0.539062 1.140625 -0.90625 1.140625 -1.375 L 1.140625 -3.578125 L 0.25 -3.578125 L 0.25 -4.125 L 0.703125 -4.125 C 1.054688 -4.125 1.234375 -4.300781 1.234375 -4.65625 L 1.234375 -5.21875 L 1.71875 -5.21875 L 1.71875 -4.125 L 3 -4.125 L 3 -3.578125 L 1.71875 -3.578125 L 1.71875 -1.375 C 1.71875 -1.0625 1.785156 -0.828125 1.921875 -0.671875 C 2.066406 -0.523438 2.273438 -0.453125 2.546875 -0.453125 C 2.710938 -0.453125 2.863281 -0.476562 3 -0.53125 L 3 -0.015625 C 2.863281 0.0546875 2.703125 0.09375 2.515625 0.09375 Z M 2.515625 0.09375 "/></g></g></g><g fill="#000000" fill-opacity="1"><g transform="translate(22.899682, 8.808445)"><g><path d="M 4.765625 -2.1875 C 4.765625 -2.039062 4.75 -1.90625 4.71875 -1.78125 L 1.015625 -1.78125 C 1.078125 -1.363281 1.253906 -1.035156 1.546875 -0.796875 C 1.835938 -0.566406 2.195312 -0.453125 2.625 -0.453125 C 3.25 -0.453125 3.707031 -0.660156 4 -1.078125 L 4.59375 -1.078125 C 4.4375 -0.722656 4.1875 -0.4375 3.84375 -0.21875 C 3.5 -0.0078125 3.085938 0.09375 2.609375 0.09375 C 2.210938 0.09375 1.84375 0.00390625 1.5 -0.171875 C 1.164062 -0.359375 0.898438 -0.613281 0.703125 -0.9375 C 0.515625 -1.257812 0.421875 -1.632812 0.421875 -2.0625 C 0.421875 -2.476562 0.519531 -2.847656 0.71875 -3.171875 C 0.925781 -3.503906 1.195312 -3.757812 1.53125 -3.9375 C 1.863281 -4.125 2.222656 -4.21875 2.609375 -4.21875 C 2.992188 -4.21875 3.347656 -4.125 3.671875 -3.9375 C 4.003906 -3.757812 4.269531 -3.515625 4.46875 -3.203125 C 4.664062 -2.898438 4.765625 -2.5625 4.765625 -2.1875 Z M 2.609375 -3.671875 C 2.347656 -3.671875 2.097656 -3.613281 1.859375 -3.5 C 1.628906 -3.394531 1.4375 -3.238281 1.28125 -3.03125 C 1.132812 -2.820312 1.046875 -2.582031 1.015625 -2.3125 L 4.1875 -2.3125 C 4.164062 -2.570312 4.082031 -2.804688 3.9375 -3.015625 C 3.789062 -3.222656 3.597656 -3.382812 3.359375 -3.5 C 3.128906 -3.613281 2.878906 -3.671875 2.609375 -3.671875 Z M 2.609375 -3.671875 "/></g></g></g><g fill="#000000" fill-opacity="1"><g transform="translate(27.607373, 8.808445)"><g><path d="M 2.625 0.09375 C 2.238281 0.09375 1.878906 0.00390625 1.546875 -0.171875 C 1.210938 -0.359375 0.941406 -0.613281 0.734375 -0.9375 C 0.523438 -1.269531 0.421875 -1.644531 0.421875 -2.0625 C 0.421875 -2.476562 0.523438 -2.847656 0.734375 -3.171875 C 0.941406 -3.503906 1.210938 -3.757812 1.546875 -3.9375 C 1.878906 -4.125 2.238281 -4.21875 2.625 -4.21875 C 2.976562 -4.21875 3.300781 -4.144531 3.59375 -4 C 3.882812 -3.851562 4.125 -3.660156 4.3125 -3.421875 C 4.5 -3.179688 4.617188 -2.929688 4.671875 -2.671875 L 4.09375 -2.671875 C 3.976562 -2.992188 3.796875 -3.238281 3.546875 -3.40625 C 3.296875 -3.582031 2.988281 -3.671875 2.625 -3.671875 C 2.332031 -3.671875 2.0625 -3.601562 1.8125 -3.46875 C 1.5625 -3.34375 1.363281 -3.15625 1.21875 -2.90625 C 1.070312 -2.65625 1 -2.375 1 -2.0625 C 1 -1.75 1.070312 -1.46875 1.21875 -1.21875 C 1.363281 -0.96875 1.5625 -0.773438 1.8125 -0.640625 C 2.0625 -0.515625 2.332031 -0.453125 2.625 -0.453125 C 2.988281 -0.453125 3.296875 -0.535156 3.546875 -0.703125 C 3.804688 -0.878906 3.988281 -1.128906 4.09375 -1.453125 L 4.671875 -1.453125 C 4.617188 -1.191406 4.5 -0.941406 4.3125 -0.703125 C 4.125 -0.460938 3.882812 -0.269531 3.59375 -0.125 C 3.300781 0.0195312 2.976562 0.09375 2.625 0.09375 Z M 2.625 0.09375 "/></g></g></g><g fill="#000000" fill-opacity="1"><g transform="translate(32.191395, 8.808445)"><g><path d="M 0.765625 0 L 0.765625 -5.78125 L 1.34375 -5.78125 L 1.34375 -3.5625 L 1.375 -3.5625 C 1.5 -3.75 1.6875 -3.90625 1.9375 -4.03125 C 2.1875 -4.15625 2.492188 -4.21875 2.859375 -4.21875 C 3.222656 -4.21875 3.550781 -4.132812 3.84375 -3.96875 C 4.132812 -3.8125 4.359375 -3.582031 4.515625 -3.28125 C 4.679688 -2.988281 4.765625 -2.640625 4.765625 -2.234375 L 4.765625 0 L 4.1875 0 L 4.1875 -2.21875 C 4.1875 -2.675781 4.0625 -3.03125 3.8125 -3.28125 C 3.5625 -3.539062 3.222656 -3.671875 2.796875 -3.671875 C 2.347656 -3.671875 1.992188 -3.539062 1.734375 -3.28125 C 1.472656 -3.03125 1.34375 -2.675781 1.34375 -2.21875 L 1.34375 0 Z M 0.765625 0 "/></g></g></g></g></g></svg>